<svg xmlns="http://www.w3.org/2000/svg" viewBox="0 0 128 128" fill="none" stroke-width="1.8" stroke-linecap="round" stroke-linejoin="round">
  <!-- Hand-drawn Blume: 5 Blütenblätter, Mitte, Stiel, Blätter -->
  <g stroke="#fda4af">
    <path d="M64 28 C56 36 56 46 64 50 C72 46 72 36 64 28" />
    <path d="M64 28 C56 36 56 46 64 50 C72 46 72 36 64 28" transform="rotate(72 64 48)" />
    <path d="M64 28 C56 36 56 46 64 50 C72 46 72 36 64 28" transform="rotate(144 64 48)" />
    <path d="M64 28 C56 36 56 46 64 50 C72 46 72 36 64 28" transform="rotate(216 64 48)" />
    <path d="M64 28 C56 36 56 46 64 50 C72 46 72 36 64 28" transform="rotate(288 64 48)" />
  </g>
  <circle cx="64" cy="48" r="5" stroke="#fef3c7" fill="none" />
  <path d="M64 56 L64 92" stroke="#059669" />
  <path d="M64 66 Q56 72 52 80" stroke="#a7f3d0" />
  <path d="M64 66 Q72 72 76 80" stroke="#a7f3d0" />
</svg>
