<svg viewBox="0 0 100 100" xmlns="http://www.w3.org/2000/svg">
  <!-- Stiel & Blätter -->
  <path d="M50 95 L50 50" stroke="#747d6d" stroke-width="3" stroke-linecap="round"/>
  <path d="M50 75 Q35 75 40 60 Q50 65 50 75" fill="#9ca692"/>
  <path d="M50 65 Q65 65 60 50 Q50 55 50 65" fill="#9ca692"/>
  
  <!-- Hintere Blütenblätter (dunkler) -->
  <g fill="#c5b0b5">
    <path d="M50 50 C42 30, 46 12, 50 5 C54 12, 58 30, 50 50" />
    <path d="M50 50 C42 30, 46 12, 50 5 C54 12, 58 30, 50 50" transform="rotate(45 50 50)" />
    <path d="M50 50 C42 30, 46 12, 50 5 C54 12, 58 30, 50 50" transform="rotate(90 50 50)" />
    <path d="M50 50 C42 30, 46 12, 50 5 C54 12, 58 30, 50 50" transform="rotate(135 50 50)" />
    <path d="M50 50 C42 30, 46 12, 50 5 C54 12, 58 30, 50 50" transform="rotate(180 50 50)" />
    <path d="M50 50 C42 30, 46 12, 50 5 C54 12, 58 30, 50 50" transform="rotate(225 50 50)" />
    <path d="M50 50 C42 30, 46 12, 50 5 C54 12, 58 30, 50 50" transform="rotate(270 50 50)" />
    <path d="M50 50 C42 30, 46 12, 50 5 C54 12, 58 30, 50 50" transform="rotate(315 50 50)" />
  </g>

  <!-- Vordere Blütenblätter (heller) -->
  <g fill="#d4c4c7">
    <path d="M50 50 C42 30, 46 12, 50 5 C54 12, 58 30, 50 50" transform="rotate(22.5 50 50)" />
    <path d="M50 50 C42 30, 46 12, 50 5 C54 12, 58 30, 50 50" transform="rotate(67.5 50 50)" />
    <path d="M50 50 C42 30, 46 12, 50 5 C54 12, 58 30, 50 50" transform="rotate(112.5 50 50)" />
    <path d="M50 50 C42 30, 46 12, 50 5 C54 12, 58 30, 50 50" transform="rotate(157.5 50 50)" />
    <path d="M50 50 C42 30, 46 12, 50 5 C54 12, 58 30, 50 50" transform="rotate(202.5 50 50)" />
    <path d="M50 50 C42 30, 46 12, 50 5 C54 12, 58 30, 50 50" transform="rotate(247.5 50 50)" />
    <path d="M50 50 C42 30, 46 12, 50 5 C54 12, 58 30, 50 50" transform="rotate(292.5 50 50)" />
    <path d="M50 50 C42 30, 46 12, 50 5 C54 12, 58 30, 50 50" transform="rotate(337.5 50 50)" />
  </g>

  <!-- Großes Zentrum (Sonnenblumen-Stil) -->
  <circle cx="50" cy="50" r="14" fill="#8c7a7e"/>
  <circle cx="50" cy="50" r="11" fill="#6b5a5e"/>
  <circle cx="50" cy="50" r="7" fill="#524447"/>
  
  <!-- Zarte Samen-Details im Zentrum -->
  <circle cx="50" cy="45" r="1" fill="#8c7a7e"/>
  <circle cx="45" cy="50" r="1" fill="#8c7a7e"/>
  <circle cx="55" cy="50" r="1" fill="#8c7a7e"/>
  <circle cx="50" cy="55" r="1" fill="#8c7a7e"/>
  <circle cx="46.5" cy="46.5" r="0.8" fill="#8c7a7e"/>
  <circle cx="53.5" cy="46.5" r="0.8" fill="#8c7a7e"/>
  <circle cx="46.5" cy="53.5" r="0.8" fill="#8c7a7e"/>
  <circle cx="53.5" cy="53.5" r="0.8" fill="#8c7a7e"/>
</svg>